bicep_curl
version=1
nRows=260
nColumns=3
inDegrees=yes

# SIMM Motion File Header:
name bicep_curl
datacolumns 3
datarows 260
otherdata 1
range 0.0000 0.2590
endheader
time	/jointset/r_shoulder/r_shoulder_elev/value	/jointset/r_elbow/r_elbow_flex/value
0.0000	0.0000	109.4800
0.0010	0.0000	109.5192
0.0020	0.0000	109.5581
0.0030	0.0000	109.5967
0.0040	0.0000	109.6351
0.0050	0.0000	109.6732
0.0060	0.0000	109.7110
0.0070	0.0000	109.7485
0.0080	0.0000	109.7858
0.0090	0.0000	109.8228
0.0100	0.0000	109.8595
0.0110	0.0000	109.8960
0.0120	0.0000	109.9321
0.0130	0.0000	109.9680
0.0140	0.0000	110.0037
0.0150	0.0000	110.0390
0.0160	0.0000	110.0741
0.0170	0.0000	110.1089
0.0180	0.0000	110.1435
0.0190	0.0000	110.1777
0.0200	0.0000	110.2117
0.0210	0.0000	110.2455
0.0220	0.0000	110.2789
0.0230	0.0000	110.3121
0.0240	0.0000	110.3450
0.0250	0.0000	110.3776
0.0260	0.0000	110.4100
0.0270	0.0000	110.4420
0.0280	0.0000	110.4739
0.0290	0.0000	110.5054
0.0300	0.0000	110.5367
0.0310	0.0000	110.5676
0.0320	0.0000	110.5984
0.0330	0.0000	110.6288
0.0340	0.0000	110.6590
0.0350	0.0000	110.6889
0.0360	0.0000	110.7185
0.0370	0.0000	110.7479
0.0380	0.0000	110.7769
0.0390	0.0000	110.8057
0.0400	0.0000	110.8343
0.0410	0.0000	110.8625
0.0420	0.0000	110.8905
0.0430	0.0000	110.9182
0.0440	0.0000	110.9457
0.0450	0.0000	110.9729
0.0460	0.0000	110.9998
0.0470	0.0000	111.0264
0.0480	0.0000	111.0527
0.0490	0.0000	111.0788
0.0500	0.0000	111.1046
0.0510	0.0000	111.1301
0.0520	0.0000	111.1554
0.0530	0.0000	111.1804
0.0540	0.0000	111.2051
0.0550	0.0000	111.2295
0.0560	0.0000	111.2537
0.0570	0.0000	111.2776
0.0580	0.0000	111.3012
0.0590	0.0000	111.3246
0.0600	0.0000	111.3476
0.0610	0.0000	111.3704
0.0620	0.0000	111.3930
0.0630	0.0000	111.4152
0.0640	0.0000	111.4372
0.0650	0.0000	111.4589
0.0660	0.0000	111.4804
0.0670	0.0000	111.5015
0.0680	0.0000	111.5224
0.0690	0.0000	111.5430
0.0700	0.0000	111.5634
0.0710	0.0000	111.5835
0.0720	0.0000	111.6033
0.0730	0.0000	111.6228
0.0740	0.0000	111.6420
0.0750	0.0000	111.6610
0.0760	0.0000	111.6797
0.0770	0.0000	111.6982
0.0780	0.0000	111.7163
0.0790	0.0000	111.7342
0.0800	0.0000	111.7518
0.0810	0.0000	111.7692
0.0820	0.0000	111.7862
0.0830	0.0000	111.8030
0.0840	0.0000	111.8196
0.0850	0.0000	111.8358
0.0860	0.0000	111.8518
0.0870	0.0000	111.8675
0.0880	0.0000	111.8829
0.0890	0.0000	111.8981
0.0900	0.0000	111.9130
0.0910	0.0000	111.9276
0.0920	0.0000	111.9419
0.0930	0.0000	111.9560
0.0940	0.0000	111.9698
0.0950	0.0000	111.9833
0.0960	0.0000	111.9966
0.0970	0.0000	112.0096
0.0980	0.0000	112.0223
0.0990	0.0000	112.0347
0.1000	0.0000	112.0468
0.1010	0.0000	112.0587
0.1020	0.0000	112.0703
0.1030	0.0000	112.0817
0.1040	0.0000	112.0927
0.1050	0.0000	112.1035
0.1060	0.0000	112.1141
0.1070	0.0000	112.1243
0.1080	0.0000	112.1343
0.1090	0.0000	112.1440
0.1100	0.0000	112.1534
0.1110	0.0000	112.1626
0.1120	0.0000	112.1714
0.1130	0.0000	112.1800
0.1140	0.0000	112.1884
0.1150	0.0000	112.1964
0.1160	0.0000	112.2042
0.1170	0.0000	112.2118
0.1180	0.0000	112.2190
0.1190	0.0000	112.2260
0.1200	0.0000	112.2327
0.1210	0.0000	112.2391
0.1220	0.0000	112.2452
0.1230	0.0000	112.2511
0.1240	0.0000	112.2567
0.1250	0.0000	112.2621
0.1260	0.0000	112.2671
0.1270	0.0000	112.2719
0.1280	0.0000	112.2764
0.1290	0.0000	112.2807
0.1300	0.0000	112.2846
0.1310	0.0000	112.2883
0.1320	0.0000	112.2918
0.1330	0.0000	112.2949
0.1340	0.0000	112.2978
0.1350	0.0000	112.3004
0.1360	0.0000	112.3027
0.1370	0.0000	112.3048
0.1380	0.0000	112.3066
0.1390	0.0000	112.3081
0.1400	0.0000	112.3093
0.1410	0.0000	112.3103
0.1420	0.0000	112.3110
0.1430	0.0000	112.3114
0.1440	0.0000	112.3115
0.1450	0.0000	112.3114
0.1460	0.0000	112.3110
0.1470	0.0000	112.3103
0.1480	0.0000	112.3094
0.1490	0.0000	112.3082
0.1500	0.0000	112.3067
0.1510	0.0000	112.3049
0.1520	0.0000	112.3029
0.1530	0.0000	112.3006
0.1540	0.0000	112.2980
0.1550	0.0000	112.2951
0.1560	0.0000	112.2920
0.1570	0.0000	112.2886
0.1580	0.0000	112.2849
0.1590	0.0000	112.2810
0.1600	0.0000	112.2768
0.1610	0.0000	112.2723
0.1620	0.0000	112.2675
0.1630	0.0000	112.2625
0.1640	0.0000	112.2572
0.1650	0.0000	112.2516
0.1660	0.0000	112.2457
0.1670	0.0000	112.2396
0.1680	0.0000	112.2332
0.1690	0.0000	112.2265
0.1700	0.0000	112.2196
0.1710	0.0000	112.2123
0.1720	0.0000	112.2048
0.1730	0.0000	112.1971
0.1740	0.0000	112.1890
0.1750	0.0000	112.1807
0.1760	0.0000	112.1721
0.1770	0.0000	112.1633
0.1780	0.0000	112.1541
0.1790	0.0000	112.1447
0.1800	0.0000	112.1351
0.1810	0.0000	112.1251
0.1820	0.0000	112.1149
0.1830	0.0000	112.1044
0.1840	0.0000	112.0936
0.1850	0.0000	112.0826
0.1860	0.0000	112.0713
0.1870	0.0000	112.0597
0.1880	0.0000	112.0478
0.1890	0.0000	112.0357
0.1900	0.0000	112.0233
0.1910	0.0000	112.0106
0.1920	0.0000	111.9976
0.1930	0.0000	111.9844
0.1940	0.0000	111.9709
0.1950	0.0000	111.9571
0.1960	0.0000	111.9431
0.1970	0.0000	111.9288
0.1980	0.0000	111.9142
0.1990	0.0000	111.8993
0.2000	0.0000	111.8842
0.2010	0.0000	111.8688
0.2020	0.0000	111.8531
0.2030	0.0000	111.8371
0.2040	0.0000	111.8209
0.2050	0.0000	111.8044
0.2060	0.0000	111.7876
0.2070	0.0000	111.7706
0.2080	0.0000	111.7532
0.2090	0.0000	111.7356
0.2100	0.0000	111.7178
0.2110	0.0000	111.6996
0.2120	0.0000	111.6812
0.2130	0.0000	111.6625
0.2140	0.0000	111.6436
0.2150	0.0000	111.6243
0.2160	0.0000	111.6048
0.2170	0.0000	111.5851
0.2180	0.0000	111.5650
0.2190	0.0000	111.5447
0.2200	0.0000	111.5241
0.2210	0.0000	111.5032
0.2220	0.0000	111.4821
0.2230	0.0000	111.4607
0.2240	0.0000	111.4390
0.2250	0.0000	111.4170
0.2260	0.0000	111.3948
0.2270	0.0000	111.3723
0.2280	0.0000	111.3495
0.2290	0.0000	111.3264
0.2300	0.0000	111.3031
0.2310	0.0000	111.2795
0.2320	0.0000	111.2556
0.2330	0.0000	111.2315
0.2340	0.0000	111.2071
0.2350	0.0000	111.1824
0.2360	0.0000	111.1574
0.2370	0.0000	111.1322
0.2380	0.0000	111.1067
0.2390	0.0000	111.0809
0.2400	0.0000	111.0548
0.2410	0.0000	111.0285
0.2420	0.0000	111.0019
0.2430	0.0000	110.9750
0.2440	0.0000	110.9479
0.2450	0.0000	110.9205
0.2460	0.0000	110.8928
0.2470	0.0000	110.8648
0.2480	0.0000	110.8366
0.2490	0.0000	110.8080
0.2500	0.0000	110.7793
0.2510	0.0000	110.7502
0.2520	0.0000	110.7209
0.2530	0.0000	110.6913
0.2540	0.0000	110.6614
0.2550	0.0000	110.6312
0.2560	0.0000	110.6008
0.2570	0.0000	110.5701
0.2580	0.0000	110.5391
0.2590	0.0000	110.5079
